<svg width="160" height="160" viewBox="0 0 160 160" fill="none" xmlns="http://www.w3.org/2000/svg">
<path d="M109.086 66.634C109.086 70.8182 109.236 74.9774 109.036 79.1616C108.837 83.9221 110.285 88.0061 113.281 91.6141C113.63 92.04 113.955 92.466 114.254 92.9169C115.328 94.5455 115.128 95.673 113.655 96.9258C110.509 99.5816 107.388 102.263 104.243 104.918C102.37 106.497 101.197 106.472 99.2992 104.918C96.7526 102.839 94.7553 100.283 92.9826 97.5522C92.5582 96.9007 92.3335 96.9258 91.8092 97.4269C88.6634 100.509 85.3428 103.365 81.1234 104.793C74.607 107.023 67.9908 107.374 61.4495 105.044C55.1579 102.789 51.3879 98.1284 49.9897 91.6391C48.4418 84.3982 49.2407 77.508 53.6848 71.3694C57.0553 66.7342 61.7241 64.0032 67.092 62.3245C72.6346 60.6207 78.352 59.9693 84.0944 59.393C85.7173 59.2176 87.3151 59.0673 88.938 58.917C89.3375 58.8919 89.687 58.8418 89.662 58.3156C89.6121 55.6598 89.8867 52.9538 89.2626 50.348C88.4636 47.0157 86.2915 45.0614 82.9709 44.3348C80.5991 43.8086 78.2522 43.959 75.9552 44.7357C72.4599 45.9383 70.2878 48.3687 69.4139 51.9766C68.9395 53.956 68.0158 54.6576 66.0933 54.4571C61.9988 54.0312 57.9042 53.6052 53.8346 53.1793C52.1618 53.0039 51.288 51.7261 51.6375 50.0975C53.7597 39.6996 60.5507 33.8617 70.3377 31.1808C77.8527 29.1262 85.4676 29.001 93.0076 31.1307C99.0745 32.8344 104.168 35.841 107.014 41.8042C108.637 45.1867 109.011 48.8447 109.061 52.5028C109.111 57.1881 109.061 61.9236 109.086 66.634ZM89.662 74.4512C89.662 73.1985 89.6121 71.9457 89.687 70.6929C89.7369 69.9162 89.4623 69.6406 88.6883 69.7158C86.7908 69.8912 84.8684 69.9162 82.9709 70.1668C79.6503 70.5927 76.4046 71.4195 73.7082 73.5242C69.7884 76.606 68.9645 80.8153 69.6137 85.5507C70.3876 91.113 75.3311 94.1948 80.624 92.3407C84.2192 91.0879 86.4163 88.4321 87.9393 85.0997C89.5372 81.7172 89.662 78.0842 89.662 74.4512Z" fill="#050606"/>
<path d="M80.4246 130.999C61.3749 130.874 44.2726 125.963 28.8181 115.615C25.6723 113.511 22.6763 111.206 19.8301 108.675C19.5804 108.45 19.3307 108.224 19.131 107.949C18.8564 107.573 18.6566 107.122 18.9812 106.671C19.3058 106.17 19.855 106.12 20.3294 106.345C21.4279 106.871 22.4765 107.447 23.5501 107.999C33.3871 113.21 43.7483 116.968 54.6089 119.349C64.4458 121.503 74.3826 122.506 84.4692 122.23C98.8751 121.829 112.757 118.923 126.114 113.536C126.763 113.26 127.437 112.985 128.111 112.834C129.06 112.659 130.009 112.784 130.433 113.812C130.833 114.764 130.308 115.515 129.609 116.117C129.11 116.543 128.536 116.893 127.961 117.269C119.348 122.882 109.91 126.489 99.9237 128.719C93.3324 130.223 86.6413 130.949 80.4246 130.999Z" fill="#F6A61F"/>
<path d="M128.486 108.676C125.614 108.651 122.768 109.027 119.922 109.327C119.373 109.378 118.749 109.528 118.499 108.927C118.199 108.25 118.773 107.849 119.248 107.524C122.793 105.168 126.763 104.241 130.932 104.016C133.804 103.84 136.65 103.966 139.446 104.818C140.719 105.193 141.343 105.945 141.319 107.248C141.169 114.213 138.847 120.277 133.828 125.213C133.654 125.388 133.454 125.538 133.254 125.689C132.805 126.014 132.256 126.315 131.781 125.914C131.332 125.538 131.581 124.987 131.781 124.536C133.254 120.853 134.752 117.195 135.476 113.261C135.576 112.76 135.601 112.259 135.626 111.783C135.651 110.154 135.077 109.453 133.479 109.052C131.806 108.601 130.133 108.676 128.486 108.676Z" fill="#F6A61F"/>
</svg>
