<svg width="160" height="160" viewBox="0 0 160 160" fill="none" xmlns="http://www.w3.org/2000/svg">
<g clip-path="url(#clip0_2616_179)">
<path d="M93.125 22L122 51L107.562 53.6364L93.125 51L90.5 36.5L93.125 22Z" fill="#188038"/>
<path d="M93.125 51V22H45.875C41.5241 22 38 25.5393 38 29.9091V130.091C38 134.461 41.5241 138 45.875 138H114.125C118.476 138 122 134.461 122 130.091V51H93.125Z" fill="#34A853"/>
<path d="M53.75 66.8184V105.046H106.25V66.8184H53.75ZM76.7188 98.4547H60.3125V89.2274H76.7188V98.4547ZM76.7188 82.6365H60.3125V73.4093H76.7188V82.6365ZM99.6875 98.4547H83.2812V89.2274H99.6875V98.4547ZM99.6875 82.6365H83.2812V73.4093H99.6875V82.6365Z" fill="white"/>
</g>
<defs>
<clipPath id="clip0_2616_179">
<rect width="84" height="116" fill="white" transform="translate(38 22)"/>
</clipPath>
</defs>
</svg>
