<svg width="160" height="160" viewBox="0 0 160 160" fill="none" xmlns="http://www.w3.org/2000/svg">
<g clip-path="url(#clip0_2616_162)">
<path d="M110.335 110.336H97.5674V90.3411C97.5674 85.5732 97.4822 79.4355 90.9271 79.4355C84.2776 79.4355 83.2601 84.6303 83.2601 89.9939V110.334H70.4929V69.2175H82.7495V74.8366H82.921C85.4202 70.5634 90.067 68.0112 95.0139 68.1948C107.954 68.1948 110.34 76.7064 110.34 87.7796L110.335 110.336ZM56.0873 63.5972C51.9954 63.5979 48.6777 60.2813 48.677 56.1894C48.6762 52.0974 51.9927 48.7796 56.0846 48.7789C60.1765 48.7781 63.4942 52.0947 63.4949 56.1867C63.4953 58.1517 62.715 60.0365 61.3258 61.4261C59.9366 62.8159 58.0523 63.5968 56.0873 63.5972ZM62.4709 110.336H49.6903V69.2175H62.4709V110.336ZM116.7 36.9224H43.2748C39.8046 36.8833 36.9589 39.663 36.9165 43.1333V116.864C36.9574 120.336 39.803 123.119 43.2748 123.082H116.7C120.178 123.125 123.035 120.343 123.083 116.864V43.128C123.034 39.6509 120.177 36.8713 116.7 36.9166" fill="#0A66C2"/>
</g>
<defs>
<clipPath id="clip0_2616_162">
<rect width="88" height="88" fill="white" transform="translate(36 36)"/>
</clipPath>
</defs>
</svg>
