<svg width="160" height="160" viewBox="0 0 160 160" fill="none" xmlns="http://www.w3.org/2000/svg">
<path d="M101.311 66.1144C107.76 70.722 115.66 73.4328 124.192 73.4328V57.0223C122.577 57.0226 120.967 56.8543 119.387 56.5197V69.4373C110.855 69.4373 102.956 66.7263 96.5056 62.1192V95.6084C96.5056 112.361 82.9176 125.941 66.1571 125.941C59.9034 125.941 54.0907 124.052 49.2622 120.811C54.7732 126.443 62.4587 129.937 70.9613 129.937C87.7229 129.937 101.312 116.357 101.312 99.603L101.311 66.1144ZM107.239 49.5582C103.943 45.9595 101.779 41.3089 101.311 36.1674V34.0566H96.7571C97.9034 40.5915 101.813 46.1744 107.239 49.5582ZM59.8633 107.955C58.022 105.542 57.0269 102.59 57.0313 99.555C57.0313 91.8928 63.2464 85.6803 70.914 85.6803C72.343 85.6798 73.7635 85.8986 75.1253 86.3304V69.5531C73.5337 69.3351 71.9276 69.2425 70.3221 69.2765V82.3352C68.9593 81.9033 67.5382 81.6839 66.1088 81.6853C58.4411 81.6853 52.2265 87.8972 52.2265 95.5604C52.2265 100.979 55.3329 105.67 59.8633 107.955Z" fill="#FF004F"/>
<path d="M96.5053 62.1189C102.956 66.726 110.855 69.4369 119.387 69.4369V56.5194C114.624 55.5056 110.408 53.018 107.238 49.5582C101.812 46.1741 97.9032 40.5912 96.7569 34.0566H84.7958V99.6023C84.7687 107.244 78.5644 113.431 70.9131 113.431C66.4044 113.431 62.3989 111.283 59.862 107.955C55.3321 105.67 52.2255 100.979 52.2255 95.5608C52.2255 87.8982 58.4402 81.6856 66.1078 81.6856C67.577 81.6856 68.993 81.9142 70.3212 82.3355V69.2768C53.8551 69.6168 40.6123 83.0642 40.6123 99.6026C40.6123 107.858 43.9101 115.343 49.2623 120.811C54.0909 124.052 59.9035 125.942 66.1572 125.942C82.9182 125.942 96.5058 112.361 96.5058 95.6084L96.5053 62.1189Z" fill="black"/>
<path d="M119.387 56.5202V53.0275C115.092 53.034 110.882 51.8319 107.239 49.5586C110.464 53.0882 114.711 55.5217 119.387 56.5202ZM96.7572 34.0574C96.6478 33.4329 96.5638 32.8043 96.5056 32.1733V30.0625H79.9905V95.6089C79.964 103.249 73.76 109.436 66.1081 109.436C63.8616 109.436 61.7406 108.903 59.8622 107.956C62.399 111.284 66.4046 113.431 70.9133 113.431C78.5639 113.431 84.7693 107.245 84.796 99.6034V34.0574H96.7572ZM70.322 69.2776V65.5592C68.9421 65.3708 67.5507 65.2762 66.1578 65.2768C49.3955 65.2768 35.8076 78.8572 35.8076 95.6089C35.8076 106.111 41.1479 115.367 49.2629 120.811C43.9106 115.343 40.6128 107.859 40.6128 99.6031C40.6128 83.065 53.8552 69.6177 70.322 69.2776Z" fill="#00F2EA"/>
</svg>
