<svg width="24" height="21" viewBox="0 0 24 21" fill="none" xmlns="http://www.w3.org/2000/svg">
<path d="M16.6572 5.41432C18.3528 5.58388 19.7615 4.16214 19.592 2.46649C19.4615 1.21432 18.4572 0.196927 17.205 0.0664918C15.5093 -0.103073 14.1007 1.31867 14.2702 3.01432C14.3876 4.26649 15.405 5.28388 16.6572 5.41432Z" fill="#1839A0"/>
<path d="M2.40072 7.73641C1.14854 7.85381 0.131151 8.88424 0.0137596 10.1364C-0.155806 11.8321 1.26593 13.2538 2.94854 13.0842C4.20072 12.9538 5.21811 11.9364 5.3355 10.6842C5.50506 8.98859 4.09637 7.56685 2.40072 7.73641Z" fill="#1839A0"/>
<path d="M23.9225 10.1364C23.7921 8.8712 22.7877 7.85381 21.5356 7.73641C19.8399 7.56685 18.4312 8.98859 18.6008 10.6842C18.7312 11.9364 19.7356 12.9538 20.9877 13.0842C22.6834 13.2538 24.0921 11.8451 23.9225 10.1364Z" fill="#1839A0"/>
<path d="M17.205 15.4181C15.5093 15.2485 14.1007 16.6702 14.2702 18.3659C14.4007 19.6311 15.405 20.6354 16.6572 20.7659C18.3528 20.9354 19.7615 19.5137 19.592 17.8181C19.4746 16.5528 18.4572 15.5354 17.205 15.4181Z" fill="#1839A0"/>
<path d="M14.9223 10.1479C14.8832 9.73046 14.7397 9.3522 14.531 9.01307C12.9789 6.46959 11.4397 3.92611 9.91365 1.36959C9.40495 0.508723 8.42669 -0.0391034 7.34408 0.0782879C6.09191 0.208723 5.07452 1.22611 4.95712 2.47829C4.89191 3.10437 5.04843 3.67829 5.34843 4.1609C7.38321 7.48698 7.73538 8.08698 9.28756 10.6957C9.48321 11.0348 9.67886 11.3739 9.95278 11.7913C9.95278 11.8044 9.96582 11.8044 9.96582 11.8174C10.3963 12.5218 11.1397 13.0305 11.9876 13.1087C12.1702 13.1218 12.3397 13.1218 12.5093 13.1087C11.9615 13.8131 11.0876 14.2435 10.1093 14.1392C9.24843 14.0479 8.53104 13.5522 8.08756 12.8479L7.98321 12.6783C7.86582 12.8609 7.73539 13.0435 7.61799 13.2261C7.07017 14.0479 6.48321 14.9348 5.42669 16.5261C5.07452 17.0348 4.87886 17.6739 4.94408 18.3522C5.07452 19.6044 6.07886 20.6218 7.33104 20.7522C8.47886 20.8696 9.49625 20.2565 9.97886 19.3174C12.1963 15.6261 12.3789 15.3261 14.3484 12.0783C14.7006 11.5044 14.9876 10.8783 14.9223 10.1479Z" fill="#1839A0"/>
</svg>
