<svg width="160" height="160" viewBox="0 0 160 160" fill="none" xmlns="http://www.w3.org/2000/svg">
<g clip-path="url(#clip0_2615_121)">
<path d="M35.4024 92.1202C35.4024 96.4892 36.3648 99.8436 37.6226 101.873C39.2717 104.531 41.7314 105.657 44.2391 105.657C47.4734 105.657 50.4323 104.857 56.1344 96.9985C60.7024 90.6997 66.0851 81.8582 69.7068 76.3154L75.8401 66.9248C80.1007 60.4031 85.0321 53.1533 90.6863 48.2392C95.3023 44.2283 100.282 42 105.293 42C113.706 42 121.72 46.8584 127.854 55.9705C134.566 65.9499 137.824 78.5198 137.824 91.4915C137.824 99.2029 136.299 104.869 133.703 109.346C131.196 113.675 126.308 118 118.087 118V105.657C125.126 105.657 126.883 99.2109 126.883 91.8337C126.883 81.321 124.424 69.6545 119.005 61.3183C115.16 55.4054 110.176 51.7925 104.694 51.7925C98.7642 51.7925 93.9925 56.249 88.6299 64.1952C85.7788 68.417 82.8519 73.5619 79.5656 79.3673L75.9479 85.7537C68.6806 98.5941 66.8398 101.519 63.2061 106.345C56.8372 114.797 51.3986 118 44.2391 118C35.7458 118 30.3752 114.335 27.049 108.812C24.3337 104.312 23 98.4071 23 91.6785L35.4024 92.1202Z" fill="#0081FB"/>
<path d="M32.7788 56.8419C38.4649 48.1079 46.6707 42 56.0823 42C61.5328 42 66.9514 43.6075 72.6095 48.2113C78.7988 53.2448 85.3953 61.5332 93.625 75.1933L96.5759 80.0955C103.699 91.9213 107.752 98.0052 110.124 100.874C113.175 104.559 115.311 105.657 118.086 105.657C125.126 105.657 126.883 99.2109 126.883 91.8337L137.824 91.4915C137.824 99.2029 136.299 104.869 133.703 109.346C131.196 113.675 126.308 118 118.086 118C112.975 118 108.447 116.894 103.44 112.187C99.5906 108.574 95.0904 102.155 91.6285 96.3858L81.3304 79.244C76.1634 70.6413 71.4236 64.227 68.6804 61.3223C65.7295 58.1987 61.9361 54.4266 55.8826 54.4266C50.9832 54.4266 46.8224 57.8526 43.3404 63.093L32.7788 56.8419Z" fill="url(#paint0_linear_2615_121)"/>
<path d="M55.8828 54.4266C50.9833 54.4266 46.8226 57.8526 43.3406 63.093C38.4172 70.498 35.4024 81.528 35.4024 92.1202C35.4024 96.4892 36.3648 99.8436 37.6226 101.873L27.049 108.812C24.3337 104.312 23 98.4071 23 91.6785C23 79.4429 26.3701 66.6901 32.779 56.8419C38.4651 48.1079 46.6708 42 56.0825 42L55.8828 54.4266Z" fill="url(#paint1_linear_2615_121)"/>
</g>
<defs>
<linearGradient id="paint0_linear_2615_121" x1="47.3575" y1="88.555" x2="126.419" y2="92.562" gradientUnits="userSpaceOnUse">
<stop stop-color="#0064E1"/>
<stop offset="0.4" stop-color="#0064E1"/>
<stop offset="0.83" stop-color="#0073EE"/>
<stop offset="1" stop-color="#0082FB"/>
</linearGradient>
<linearGradient id="paint1_linear_2615_121" x1="40.9687" y1="97.3089" x2="40.9687" y2="68.2618" gradientUnits="userSpaceOnUse">
<stop stop-color="#0082FB"/>
<stop offset="1" stop-color="#0064E0"/>
</linearGradient>
<clipPath id="clip0_2615_121">
<rect width="115" height="76" fill="white" transform="translate(23 42)"/>
</clipPath>
</defs>
</svg>
